<?xml version="1.0" encoding="utf-8"?>
<!-- Generator: Adobe Illustrator 18.1.0, SVG Export Plug-In . SVG Version: 6.00 Build 0)  -->
<svg version="1.1" id="Layer_1" xmlns="http://www.w3.org/2000/svg" xmlns:xlink="http://www.w3.org/1999/xlink" x="0px" y="0px"
	 viewBox="0 0 216 216" enable-background="new 0 0 216 216" xml:space="preserve">
<polygon fill="#FFFFFF" points="36,150.8 82.7,150.8 82.7,104.1 "/>
<polygon fill="#C6563D" points="91.1,9.9 91.1,14.7 91.1,19.4 116.7,14.7 "/>
<polygon fill="#FFFFFF" points="194.8,150.8 91.1,150.8 91.1,95.8 124.8,62.1 "/>
<polygon fill="#FFFFFF" points="119.9,55.9 91.1,84.8 91.1,19.4 "/>
<polygon fill="#FFFFFF" points="102.5,166.4 140.3,175.7 164.8,157.9 21.2,157.9 67.3,179.4 "/>
<g>
	<path fill="#C6563D" d="M111.5,118.2l-9.2-14h5.5l6,9.7l6.1-9.7h5.2l-9.2,14v10.5h-4.3V118.2z"/>
	<path fill="#C6563D" d="M144,109.5c-0.5-0.7-1.1-1.2-1.8-1.5c-0.8-0.3-1.6-0.5-2.4-0.5c-0.5,0-1,0.1-1.5,0.2
		c-0.5,0.1-0.9,0.3-1.3,0.6c-0.4,0.3-0.7,0.6-0.9,1c-0.2,0.4-0.3,0.9-0.3,1.4c0,0.8,0.3,1.5,0.9,1.9s1.3,0.8,2.1,1.1
		c0.9,0.3,1.8,0.6,2.8,0.9c1,0.3,1.9,0.7,2.8,1.2c0.9,0.5,1.6,1.2,2.1,2.1c0.6,0.9,0.9,2,0.9,3.5c0,1.3-0.2,2.5-0.7,3.4
		c-0.5,1-1.1,1.8-1.9,2.4c-0.8,0.6-1.8,1.1-2.8,1.4c-1.1,0.3-2.2,0.5-3.4,0.5c-1.5,0-3-0.3-4.4-0.8c-1.4-0.5-2.6-1.4-3.6-2.6
		l3.3-3.2c0.5,0.8,1.2,1.4,2.1,1.9c0.9,0.4,1.8,0.7,2.7,0.7c0.5,0,1-0.1,1.5-0.2c0.5-0.1,1-0.3,1.4-0.6c0.4-0.3,0.7-0.6,1-1.1
		c0.3-0.4,0.4-0.9,0.4-1.5c0-0.9-0.3-1.6-0.9-2.1s-1.3-0.9-2.1-1.2c-0.9-0.3-1.8-0.6-2.8-0.9c-1-0.3-1.9-0.7-2.8-1.2
		c-0.9-0.5-1.6-1.2-2.1-2.1c-0.6-0.9-0.9-2-0.9-3.5c0-1.3,0.3-2.4,0.8-3.3c0.5-0.9,1.2-1.7,2-2.3c0.8-0.6,1.8-1.1,2.9-1.4
		c1.1-0.3,2.2-0.4,3.3-0.4c1.3,0,2.5,0.2,3.7,0.6c1.2,0.4,2.3,1,3.3,1.9L144,109.5z"/>
</g>
<g>
	<path fill="#39B54A" d="M93.8,203h-9.6c6.7-9.1,1.4-22.1,1.4-22.1S98,188,93.8,203z"/>
	<path fill="#39B54A" d="M101,203H90.3c7.5-10.2,1.6-24.8,1.6-24.8S105.8,186.1,101,203z"/>
	<path fill="#39B54A" d="M101,203h9.6c-6.7-9.1-1.4-22.1-1.4-22.1S96.8,188,101,203z"/>
	<path fill="#39B54A" d="M116.4,203h9.6c-6.7-9.1-1.4-22.1-1.4-22.1S112.2,188,116.4,203z"/>
	<path fill="#39B54A" d="M109.2,203h10.3c-7.2-9.7-1.5-23.6-1.5-23.6S104.6,186.9,109.2,203z"/>
	<path fill="#39B54A" d="M85.9,203h-7.4c5.1-5.2,1.1-12.6,1.1-12.6S89.1,194.4,85.9,203z"/>
	<path fill="#39B54A" d="M129,203h7.9c-5.5-5.6-1.1-13.5-1.1-13.5S125.5,193.8,129,203z"/>
	<path fill="#39B54A" d="M124.4,203h8.5c-6-8.1-1.2-19.6-1.2-19.6S120.7,189.6,124.4,203z"/>
</g>
</svg>
